<?xml version="1.0" encoding="UTF-8" standalone="no"?>
<svg
   xmlns:dc="http://purl.org/dc/elements/1.1/"
   xmlns:cc="http://creativecommons.org/ns#"
   xmlns:rdf="http://www.w3.org/1999/02/22-rdf-syntax-ns#"
   xmlns:svg="http://www.w3.org/2000/svg"
   xmlns="http://www.w3.org/2000/svg"
   viewBox="0 0 1122.52 793.70135"
   height="793.70135"
   width="1122.52"
   xml:space="preserve"
   id="svg2"
   version="1.1"><metadata
     id="metadata8"><rdf:RDF><cc:Work
         rdf:about=""><dc:format>image/svg+xml</dc:format><dc:type
           rdf:resource="http://purl.org/dc/dcmitype/StillImage" /></cc:Work></rdf:RDF></metadata><defs
     id="defs6"><clipPath
       id="clipPath20"
       clipPathUnits="userSpaceOnUse"><path
         id="path18"
         d="M 0,595.276 H 841.89 V 0 H 0 Z" /></clipPath></defs><g
     transform="matrix(1.3333333,0,0,-1.3333333,0,793.70133)"
     id="g10"><path
       id="path12"
       style="fill:#ffffff;fill-opacity:1;fill-rule:nonzero;stroke:none"
       d="M 0,0 H 841.89 V 595.275 H 0 Z" /><g
       id="g14"><g
         clip-path="url(#clipPath20)"
         id="g16"><g
           transform="translate(138.2358,214.918)"
           id="g22"><path
             id="path24"
             style="fill:#000000;fill-opacity:1;fill-rule:evenodd;stroke:none"
             d="M 0,0 H -31.894 V 44.475 H -1.08 V 34.563 H -21.411 V 27.511 H -2.732 V 17.473 H -21.411 V 9.976 L 0,9.976 Z M 41.272,0 H 28.375 L 22.021,8.959 15.667,0 H 2.961 L 15.477,16.393 2.77,33.292 h 12.961 l 6.163,-8.768 6.163,8.768 h 12.58 L 28.375,17.027 Z m 24.944,33.864 c 4.32,0 7.899,-1.493 10.738,-4.479 2.838,-2.986 4.256,-7.168 4.256,-12.548 0,-5.422 -1.44,-9.625 -4.32,-12.611 -2.88,-2.987 -6.481,-4.479 -10.801,-4.479 -4.448,0 -7.688,1.588 -9.721,4.765 v -16.71 H 46.266 v 45.49 h 10.038 v -4.828 c 1.906,3.6 5.21,5.4 9.912,5.4 M 58.433,10.991 c 1.419,-1.312 3.166,-1.969 5.241,-1.969 2.076,0 3.812,0.657 5.21,1.969 1.398,1.315 2.097,3.22 2.097,5.719 0,2.499 -0.699,4.384 -2.097,5.654 -1.398,1.271 -3.134,1.907 -5.21,1.907 -2.117,0 -3.875,-0.636 -5.273,-1.907 -1.398,-1.27 -2.097,-3.155 -2.097,-5.654 0,-2.499 0.71,-4.404 2.129,-5.719 M 117.59,17.6 V 13.533 H 95.353 c 0.423,-3.43 2.71,-5.145 6.861,-5.145 2.584,0 4.321,0.74 5.21,2.222 h 9.975 c -0.805,-3.642 -2.636,-6.438 -5.496,-8.386 -2.859,-1.949 -6.216,-2.922 -10.07,-2.922 -4.744,0 -8.694,1.471 -11.849,4.415 -3.156,2.944 -4.734,7.17 -4.734,12.676 0,5.59 1.61,9.9 4.829,12.929 3.219,3.028 7.222,4.542 12.008,4.542 4.49,0 8.196,-1.408 11.119,-4.224 2.922,-2.817 4.384,-6.83 4.384,-12.04 m -22.301,2.35 h 12.199 c -0.212,3.219 -2.097,4.829 -5.655,4.829 -3.643,0 -5.824,-1.61 -6.544,-4.829 m 49.404,13.724 v -9.911 h -3.113 c -2.372,0 -4.236,-0.615 -5.591,-1.843 -1.355,-1.229 -2.033,-3.135 -2.033,-5.718 V 0 h -10.102 v 33.292 h 10.038 v -4.257 c 0.509,1.484 1.441,2.627 2.795,3.432 1.356,0.804 2.966,1.207 4.829,1.207 z M 170.654,8.832 v -8.895 h -6.481 c -3.473,0 -6.131,0.731 -7.974,2.192 -1.843,1.462 -2.763,4.289 -2.763,8.481 v 13.787 h -5.655 v 8.895 h 5.655 v 6.735 l 10.038,2.795 v -9.53 h 6.481 v -8.895 h -6.481 V 11.882 c 0,-2.033 1.016,-3.05 3.05,-3.05 z m 45.846,8.704 c 0,-3.939 -0.975,-7.359 -2.923,-10.261 -1.949,-2.901 -4.448,-5.03 -7.497,-6.385 -3.049,-1.356 -6.417,-2.034 -10.102,-2.034 -3.516,0 -6.661,0.658 -9.435,1.97 -2.774,1.314 -5.008,3.082 -6.703,5.306 -1.694,2.223 -2.975,4.69 -3.844,7.401 -0.868,2.711 -1.302,5.549 -1.302,8.514 0,3.05 0.466,5.951 1.397,8.704 0.932,2.754 2.267,5.242 4.003,7.465 1.737,2.224 4.035,4.003 6.894,5.337 2.859,1.335 6.067,2.002 9.625,2.002 5.507,0 10.081,-1.536 13.724,-4.606 3.642,-3.071 5.654,-7.233 6.036,-12.485 h -10.611 c 0,2.16 -0.847,3.929 -2.541,5.305 -1.694,1.377 -3.918,2.065 -6.671,2.065 -3.855,0 -6.714,-1.313 -8.577,-3.939 -1.864,-2.626 -2.796,-5.845 -2.796,-9.658 0,-3.811 0.922,-7.02 2.764,-9.625 1.842,-2.605 4.67,-3.907 8.481,-3.907 2.754,0 5.02,0.741 6.799,2.223 1.779,1.483 2.69,3.685 2.732,6.608 z m 9.092,11.658 c 3.155,3.114 7.274,4.67 12.357,4.67 5.083,0 9.202,-1.556 12.358,-4.67 3.155,-3.113 4.733,-7.316 4.733,-12.611 0,-5.295 -1.578,-9.499 -4.733,-12.611 -3.156,-3.114 -7.275,-4.67 -12.358,-4.67 -5.083,0 -9.202,1.556 -12.357,4.67 -3.156,3.112 -4.734,7.316 -4.734,12.611 0,5.295 1.578,9.498 4.734,12.611 m 7.401,-18.424 c 1.229,-1.25 2.881,-1.874 4.956,-1.874 2.075,0 3.727,0.624 4.956,1.874 1.228,1.249 1.842,3.187 1.842,5.813 0,2.626 -0.614,4.563 -1.842,5.813 -1.229,1.25 -2.881,1.875 -4.956,1.875 -2.075,0 -3.727,-0.625 -4.956,-1.875 -1.228,-1.25 -1.842,-3.187 -1.842,-5.813 0,-2.626 0.614,-4.564 1.842,-5.813 M 271.406,0 h -10.102 v 45.174 h 10.102 z m 18.59,0 h -10.102 v 45.174 h 10.102 z M 328.6,17.6 v -4.067 h -22.237 c 0.424,-3.43 2.711,-5.145 6.861,-5.145 2.584,0 4.321,0.74 5.21,2.222 h 9.975 c -0.805,-3.642 -2.636,-6.438 -5.496,-8.386 -2.859,-1.949 -6.215,-2.922 -10.07,-2.922 -4.744,0 -8.693,1.471 -11.848,4.415 -3.157,2.944 -4.735,7.17 -4.735,12.676 0,5.59 1.611,9.9 4.829,12.929 3.219,3.028 7.222,4.542 12.008,4.542 4.489,0 8.196,-1.408 11.119,-4.224 2.923,-2.817 4.384,-6.83 4.384,-12.04 m -22.301,2.35 h 12.2 c -0.212,3.219 -2.098,4.829 -5.656,4.829 -3.642,0 -5.824,-1.61 -6.544,-4.829 M 349.541,8.577 c 3.261,0 5.083,1.293 5.463,3.876 h 10.039 c -0.211,-3.981 -1.758,-7.169 -4.638,-9.561 -2.88,-2.394 -6.628,-3.59 -11.246,-3.59 -5.336,0 -9.424,1.598 -12.261,4.797 -2.839,3.198 -4.258,7.232 -4.258,12.103 0,5.04 1.483,9.244 4.447,12.611 2.966,3.368 7.118,5.051 12.454,5.051 4.489,0 8.132,-1.185 10.927,-3.557 2.796,-2.373 4.321,-5.549 4.575,-9.531 h -10.102 c -0.297,2.584 -2.033,3.875 -5.21,3.875 -2.329,0 -4.045,-0.772 -5.146,-2.318 -1.101,-1.546 -1.652,-3.484 -1.652,-5.813 0,-2.415 0.571,-4.342 1.716,-5.782 1.143,-1.44 2.773,-2.161 4.892,-2.161 m 40.827,0.255 v -8.895 h -6.481 c -3.473,0 -6.131,0.731 -7.973,2.192 -1.843,1.462 -2.764,4.289 -2.764,8.481 v 13.787 h -5.654 v 8.895 h 5.654 v 6.735 l 10.038,2.795 v -9.53 h 6.481 v -8.895 h -6.481 V 11.882 c 0,-2.033 1.017,-3.05 3.05,-3.05 z m 5.184,37.167 h 10.102 v -9.594 h -10.102 z m 0,-12.707 h 10.102 V 0 h -10.102 z m 40.764,0 h 10.293 L 432.949,0 h -9.722 l -13.659,33.292 h 10.61 L 428.248,11.5 Z M 480.447,17.6 V 13.533 H 458.21 c 0.423,-3.43 2.711,-5.145 6.862,-5.145 2.584,0 4.32,0.74 5.21,2.222 h 9.974 c -0.804,-3.642 -2.635,-6.438 -5.496,-8.386 -2.858,-1.949 -6.216,-2.922 -10.07,-2.922 -4.743,0 -8.693,1.471 -11.849,4.415 -3.155,2.944 -4.733,7.17 -4.733,12.676 0,5.59 1.609,9.9 4.828,12.929 3.22,3.028 7.223,4.542 12.009,4.542 4.489,0 8.196,-1.408 11.118,-4.224 2.923,-2.817 4.384,-6.83 4.384,-12.04 m -22.3,2.35 h 12.198 c -0.212,3.219 -2.096,4.829 -5.655,4.829 -3.642,0 -5.823,-1.61 -6.543,-4.829 m 26.023,-9.022 h 10.674 V 0 H 484.17 Z m 19.13,18.266 c 3.156,3.114 7.275,4.67 12.358,4.67 5.083,0 9.202,-1.556 12.357,-4.67 3.155,-3.113 4.734,-7.316 4.734,-12.611 0,-5.295 -1.579,-9.499 -4.734,-12.611 -3.155,-3.114 -7.274,-4.67 -12.357,-4.67 -5.083,0 -9.202,1.556 -12.358,4.67 -3.156,3.112 -4.733,7.316 -4.733,12.611 0,5.295 1.577,9.498 4.733,12.611 m 7.402,-18.424 c 1.228,-1.25 2.88,-1.874 4.956,-1.874 2.075,0 3.726,0.624 4.955,1.874 1.228,1.249 1.843,3.187 1.843,5.813 0,2.626 -0.615,4.563 -1.843,5.813 -1.229,1.25 -2.88,1.875 -4.955,1.875 -2.076,0 -3.728,-0.625 -4.956,-1.875 -1.229,-1.25 -1.842,-3.187 -1.842,-5.813 0,-2.626 0.613,-4.564 1.842,-5.813 m 49.15,22.904 v -9.911 h -3.113 c -2.372,0 -4.237,-0.615 -5.591,-1.843 -1.356,-1.229 -2.033,-3.135 -2.033,-5.718 V 0 h -10.103 v 33.292 h 10.039 v -4.257 c 0.508,1.484 1.44,2.627 2.795,3.432 1.357,0.804 2.965,1.207 4.829,1.207 z m 27.611,-0.382 h 9.849 V 2.669 c 0,-5.125 -1.663,-9.001 -4.987,-11.627 -3.325,-2.626 -7.445,-3.938 -12.358,-3.938 -4.405,0 -8.196,1.047 -11.373,3.144 -3.177,2.097 -5.103,5.115 -5.781,9.054 h 10.293 c 0.296,-1.229 1.037,-2.193 2.223,-2.892 1.186,-0.698 2.732,-1.047 4.638,-1.047 2.414,0 4.268,0.55 5.559,1.652 1.293,1.1 1.937,2.583 1.937,4.447 v 4.892 c -1.439,-3.516 -4.679,-5.273 -9.719,-5.273 -4.237,0 -7.816,1.345 -10.739,4.033 -2.922,2.691 -4.383,6.683 -4.383,11.977 0,5.338 1.503,9.467 4.511,12.389 3.007,2.923 6.65,4.384 10.928,4.384 2.117,0 4.013,-0.391 5.687,-1.175 1.672,-0.784 2.912,-1.917 3.715,-3.399 z M 574.725,11.596 c 1.377,-1.249 3.103,-1.875 5.179,-1.875 2.075,0 3.802,0.626 5.178,1.875 1.376,1.25 2.064,3.102 2.064,5.559 0,2.456 -0.688,4.299 -2.064,5.527 -1.376,1.229 -3.103,1.842 -5.178,1.842 -2.076,0 -3.802,-0.613 -5.179,-1.842 -1.377,-1.228 -2.064,-3.071 -2.064,-5.527 0,-2.457 0.687,-4.309 2.064,-5.559" /></g><g
           transform="translate(371.0186,367.5454)"
           id="g26"><path
             id="path28"
             style="fill:#3a6dff;fill-opacity:1;fill-rule:evenodd;stroke:none"
             d="M 0,0 C 5.771,0 10.449,4.678 10.449,10.449 10.449,16.22 5.771,20.898 0,20.898 -5.771,20.898 -10.449,16.22 -10.449,10.449 -10.449,4.678 -5.771,0 0,0" /></g><g
           transform="translate(396.4653,367.6953)"
           id="g30"><path
             id="path32"
             style="fill:#3a6dff;fill-opacity:1;fill-rule:evenodd;stroke:none"
             d="m 0,0 c 0,-4.172 3.382,-7.555 7.555,-7.555 4.173,0 7.555,3.383 7.555,7.555 0,4.172 -3.382,7.555 -7.555,7.555 C 3.382,7.555 0,4.172 0,0" /></g><g
           transform="translate(429.3535,382.8052)"
           id="g34"><path
             id="path36"
             style="fill:#3a6dff;fill-opacity:1;fill-rule:evenodd;stroke:none"
             d="m 0,0 c 0,-5.771 4.679,-10.449 10.449,-10.449 5.771,0 10.448,4.678 10.448,10.449 0,5.771 -4.677,10.449 -10.448,10.449 C 4.679,10.449 0,5.771 0,0" /></g><g
           transform="translate(469.2705,379.1968)"
           id="g38"><path
             id="path40"
             style="fill:#3a6dff;fill-opacity:1;fill-rule:evenodd;stroke:none"
             d="m 0,0 c -4.815,0 -8.72,-3.904 -8.72,-8.72 0,-4.816 3.905,-8.72 8.72,-8.72 4.816,0 8.72,3.904 8.72,8.72 C 8.72,-3.904 4.816,0 0,0" /></g><g
           transform="translate(484.3906,340.3887)"
           id="g42"><path
             id="path44"
             style="fill:#3a6dff;fill-opacity:1;fill-rule:evenodd;stroke:none"
             d="M 0,0 C -4.628,9.956 -13.279,18.832 -24.303,18.167 L -17.5,7.455 c 5.253,-5.256 10.02,-12.143 13.568,-23.114 -2.321,-2.27 -4.37,1.656 -6.389,6.089 -4.796,9.704 -15.589,30.34 -25.429,35.083 -11.931,5.749 -19.01,-3.693 -25.466,-15.086 l -14.659,-27.05 c -7.091,-13.084 -8.995,-3.915 -14.282,6.753 -2.948,7.269 -10.16,24.815 -15.783,29.742 -6.951,6.087 -13.886,2.171 -18.484,-5.887 -6.263,-10.972 -6.283,-21.7 -4.298,-32.349 1.387,-7.02 4.394,-9.76 8.784,-9.182 1.862,0.245 4.529,3.263 7.229,6.395 3.927,4.553 7.924,9.934 9.622,12.259 l -4.248,9.246 c -4.471,-4.426 -8.615,-9.31 -12.585,-14.437 -0.971,6.215 -0.58,12.18 1.437,17.846 1.511,4.243 5.505,14.106 8.861,5.156 l 14.283,-30.37 c 8.241,-17.226 19.829,-14.678 28.066,0.437 l 15.986,29.331 c 2.815,5.023 5.854,9.204 9.034,9.431 4.378,0.312 11.274,-10.03 14.839,-16.166 1.664,-2.865 4.935,-9.282 8.501,-15.708 4.537,-8.179 9.726,-16.233 14.588,-15.48 C 6.006,-28.006 3.373,-7.257 0,0" /></g><g
           transform="translate(440.5859,325.0273)"
           id="g46"><path
             id="path48"
             style="fill:#3a6dff;fill-opacity:1;fill-rule:evenodd;stroke:none"
             d="m 0,0 13.127,18.461 -5.6,7.818 C 1.148,19.744 -2.956,12.262 -7.826,5.099 c -2.25,-3.063 -4.499,-2.595 -6.749,0.357 l -4.924,-8.683 C -12.36,-9.87 -5.259,-7.397 0,0" /></g><g
           transform="translate(417.2905,343.4512)"
           id="g50"><path
             id="path52"
             style="fill:#3a6dff;fill-opacity:1;fill-rule:evenodd;stroke:none"
             d="m 0,0 c -6.16,12.209 -14.625,17.034 -29.582,6.465 l 4.098,-8.833 5.413,3.608 c 7.919,5.155 11.681,-5.995 14.584,-11.388 z" /></g></g></g></g></svg>